name Walk7.mot
datacolumns 19
datarows 17
range 3.86000000 3.94000000
endheader

                time	   L_ground_force_vx	   L_ground_force_vy	   L_ground_force_vz	   L_ground_force_px	   L_ground_force_py	   L_ground_force_pz	   R_ground_force_vx	   R_ground_force_vy	   R_ground_force_vz	   R_ground_force_px	   R_ground_force_py	   R_ground_force_pz	   L_ground_torque_x	   L_ground_torque_y	   L_ground_torque_z	   R_ground_torque_x	   R_ground_torque_y	   R_ground_torque_z	
          3.86000000	         -0.00000000	         -0.00000002	         -0.00000000	          0.00000000	          0.00000000	          0.00000000	         34.59920337	        228.22602329	         -2.50605094	          0.35797161	          0.00000000	          0.11806037	          0.00000000	         -0.00000000	          0.00000000	          0.00000000	         -7.91637060	          0.00000000	
          3.86500000	         -0.00000000	         -0.00000001	         -0.00000000	          0.00000000	          0.00000000	          0.00000000	         26.94972612	        185.87463235	         -0.87719257	          0.35538813	          0.00000000	          0.11334236	          0.00000000	         -0.00000000	          0.00000000	          0.00000000	         -6.71452188	          0.00000000	
          3.87000000	         -0.00000000	         -0.00000001	         -0.00000000	          0.00000000	          0.00000000	          0.00000000	         19.68938255	        147.62132459	          0.34034854	          0.34905271	          0.00000000	          0.10752166	          0.00000000	         -0.00000000	          0.00000000	          0.00000000	         -5.51895749	          0.00000000	
          3.87500000	         -0.00000000	         -0.00000000	         -0.00000000	          0.00000000	          0.00000000	          0.00000000	         13.09259543	        113.93617507	          1.20090579	          0.33789617	          0.00000000	          0.10048260	          0.00000000	         -0.00000000	          0.00000000	          0.00000000	         -4.37406908	          0.00000000	
          3.88000000	         -0.00000000	         -0.00000000	         -0.00000000	          0.00000000	          0.00000000	          0.00000000	          7.40428794	         85.02234033	          1.75397933	          0.32091966	          0.00000000	          0.09215761	          0.00000000	         -0.00000000	          0.00000000	          0.00000000	         -3.32126319	          0.00000000	
          3.88500000	          0.00000000	          0.00000000	         -0.00000000	          0.00000000	          0.00000000	          0.00000000	          2.80429084	         60.82592101	          2.04306670	          0.29740564	          0.00000000	          0.08255492	          0.00000000	         -0.00000000	          0.00000000	          0.00000000	         -2.39353664	          0.00000000	
          3.89000000	          0.00000000	          0.00000000	         -0.00000000	          0.00000000	          0.00000000	          0.00000000	         -0.61960611	         41.08941874	          2.10980686	          0.26717675	          0.00000000	          0.07179923	          0.00000000	         -0.00000000	          0.00000000	          0.00000000	         -1.61205548	          0.00000000	
          3.89500000	          0.00000000	          0.00000000	         -0.00000000	          0.00000000	          0.00000000	          0.00000000	         -2.89038542	         25.43352101	          2.00275755	          0.23093856	          0.00000000	          0.06018773	          0.00000000	         -0.00000000	          0.00000000	          0.00000000	         -0.98427403	          0.00000000	
          3.90000000	          0.00000000	          0.00000000	          0.00000000	          0.00000000	          0.00000000	          0.00000000	         -4.14993588	         13.44065603	          1.77919298	          0.19068530	          0.00000000	          0.04825750	          0.00000000	          0.00000000	          0.00000000	          0.00000000	         -0.50417658	          0.00000000	
          3.90500000	          0.00000000	          0.00000000	          0.00000000	          0.00000000	          0.00000000	          0.00000000	         -4.63120186	          4.68989049	          1.49527322	          0.14987352	          0.00000000	          0.03680831	          0.00000000	          0.00000000	          0.00000000	          0.00000000	         -0.15645341	          0.00000000	
          3.91000000	          0.00000000	          0.00000000	          0.00000000	         -0.00000000	          0.00000000	         -0.00000000	         -4.57355633	         -1.29271957	          1.19494294	          0.11184854	          0.00000000	          0.02655507	          0.00000000	          0.00000000	          0.00000000	          0.00000000	          0.07890830	          0.00000000	
          3.91500000	          0.00000000	          0.00000000	          0.00000000	         -0.00000000	          0.00000000	         -0.00000000	         -4.17487637	         -5.02701302	          0.90784142	          0.07861798	          0.00000000	          0.01787969	          0.00000000	          0.00000000	          0.00000000	          0.00000000	          0.22360051	          0.00000000	
          3.92000000	          0.00000000	          0.00000000	          0.00000000	         -0.00000000	          0.00000000	         -0.00000000	         -3.58902839	         -7.02416712	          0.65192949	          0.05109014	          0.00000000	          0.01090226	          0.00000000	          0.00000000	          0.00000000	          0.00000000	          0.29870472	          0.00000000	
          3.92500000	          0.00000000	          0.00000000	          0.00000000	         -0.00000000	          0.00000000	         -0.00000000	         -2.92948668	         -7.74937666	          0.43625839	          0.02939646	          0.00000000	          0.00556554	          0.00000000	          0.00000000	          0.00000000	          0.00000000	          0.32324367	          0.00000000	
          3.93000000	          0.00000000	          0.00000000	          0.00000000	         -0.00000000	          0.00000000	         -0.00000000	         -2.27484839	         -7.60155750	          0.26344993	          0.01315981	          0.00000000	          0.00170303	          0.00000000	          0.00000000	          0.00000000	          0.00000000	          0.31341535	          0.00000000	
          3.93500000	          0.00000000	          0.00000000	          0.00000000	         -0.00000000	          0.00000000	         -0.00000000	         -1.67512853	         -6.90557265	          0.13179550	          0.00170679	          0.00000000	         -0.00090860	          0.00000000	          0.00000000	          0.00000000	          0.00000000	          0.28232528	          0.00000000	
          3.94000000	          0.00000000	          0.00000000	          0.00000000	         -0.00000000	          0.00000000	         -0.00000000	         -1.15805739	         -5.91310375	          0.03694464	         -0.00577281	          0.00000000	         -0.00251154	          0.00000000	          0.00000000	          0.00000000	          0.00000000	          0.24005930	          0.00000000	
